STARTFONT 2.1
FONT -Monotype-Nimrod-Regular-I-Normal--14-100-100-100-P-80-iso8859-5
SIZE 10 100 100
FONTBOUNDINGBOX 18 17 -2 -3

STARTPROPERTIES 24
FOUNDRY "Monotype"
FAMILY_NAME "Nimrod"
WEIGHT_NAME "Regular"
SLANT "I"
SETWIDTH_NAME "Normal"
ADD_STYLE_NAME ""
PIXEL_SIZE 14
POINT_SIZE 100
RESOLUTION_X 100
RESOLUTION_Y 100
SPACING "P"
AVERAGE_WIDTH 80
CHARSET_REGISTRY "iso8859"
CHARSET_ENCODING "5"
FACE_NAME "Nimrod Inclined ISO Latin Cyrillic"
_DEC_DEVICE_FONTNAMES "PS=nimrod-in-latcyrillic"
COPYRIGHT "Copyright (c) 1994 Monotype Typography Ltd."
CAP_HEIGHT 12
X_HEIGHT 9
WEIGHT 10
QUAD_WIDTH 10
DEFAULT_CHAR 160
FONT_DESCENT 3
FONT_ASCENT 14
ENDPROPERTIES

CHARS 191

STARTCHAR space
ENCODING 32
SWIDTH 250 0
DWIDTH 4 0
BBX 0 0 0 0
BITMAP
ENDCHAR

STARTCHAR exclam
ENCODING 33
SWIDTH 354 0
DWIDTH 5 0
BBX 4 11 1 0
BITMAP
10
10
20
20
20
20
40
40
00
80
80
ENDCHAR

STARTCHAR quotedbl
ENCODING 34
SWIDTH 417 0
DWIDTH 6 0
BBX 5 4 1 7
BITMAP
48
48
90
90
ENDCHAR

STARTCHAR numbersign
ENCODING 35
SWIDTH 667 0
DWIDTH 9 0
BBX 9 11 0 0
BITMAP
1100
1100
1100
7F80
2200
2200
2200
FF00
4400
4400
4400
ENDCHAR

STARTCHAR dollar
ENCODING 36
SWIDTH 500 0
DWIDTH 7 0
BBX 7 13 0 -2
BITMAP
08
3C
4A
4A
48
38
14
14
94
94
78
10
10
ENDCHAR

STARTCHAR percent
ENCODING 37
SWIDTH 1000 0
DWIDTH 14 0
BBX 9 11 3 0
BITMAP
2080
5100
9200
9200
A400
4900
1280
2480
2480
4500
8200
ENDCHAR

STARTCHAR ampersand
ENCODING 38
SWIDTH 854 0
DWIDTH 12 0
BBX 11 11 1 0
BITMAP
0E00
1100
1100
1200
1C00
68E0
8440
8480
8300
8640
7980
ENDCHAR

STARTCHAR quoteright
ENCODING 39
SWIDTH 281 0
DWIDTH 4 0
BBX 3 4 1 7
BITMAP
40
60
20
C0
ENDCHAR

STARTCHAR parenleft
ENCODING 40
SWIDTH 354 0
DWIDTH 5 0
BBX 5 13 0 -2
BITMAP
08
10
20
20
40
40
80
80
80
80
80
40
40
ENDCHAR

STARTCHAR parenright
ENCODING 41
SWIDTH 354 0
DWIDTH 5 0
BBX 5 13 0 -2
BITMAP
10
10
08
08
08
08
08
10
10
20
20
40
80
ENDCHAR

STARTCHAR asterisk
ENCODING 42
SWIDTH 469 0
DWIDTH 7 0
BBX 4 5 2 6
BITMAP
20
C0
70
A0
A0
ENDCHAR

STARTCHAR plus
ENCODING 43
SWIDTH 667 0
DWIDTH 9 0
BBX 7 7 1 1
BITMAP
10
10
10
FE
10
10
10
ENDCHAR

STARTCHAR comma
ENCODING 44
SWIDTH 281 0
DWIDTH 4 0
BBX 3 4 0 -2
BITMAP
40
60
20
C0
ENDCHAR

STARTCHAR minus
ENCODING 45
SWIDTH 667 0
DWIDTH 9 0
BBX 7 1 1 4
BITMAP
FE
ENDCHAR

STARTCHAR period
ENCODING 46
SWIDTH 281 0
DWIDTH 4 0
BBX 1 2 2 0
BITMAP
80
80
ENDCHAR

STARTCHAR slash
ENCODING 47
SWIDTH 510 0
DWIDTH 7 0
BBX 7 11 0 0
BITMAP
02
04
04
08
08
10
20
20
40
40
80
ENDCHAR

STARTCHAR zero
ENCODING 48
SWIDTH 500 0
DWIDTH 7 0
BBX 6 11 1 0
BITMAP
38
44
44
44
84
84
84
88
88
88
70
ENDCHAR

STARTCHAR one
ENCODING 49
SWIDTH 500 0
DWIDTH 7 0
BBX 4 11 2 0
BITMAP
10
30
10
10
20
20
20
40
40
40
E0
ENDCHAR

STARTCHAR two
ENCODING 50
SWIDTH 500 0
DWIDTH 7 0
BBX 6 11 1 0
BITMAP
38
44
44
24
04
08
10
20
44
88
F8
ENDCHAR

STARTCHAR three
ENCODING 51
SWIDTH 500 0
DWIDTH 7 0
BBX 6 11 1 0
BITMAP
38
44
44
04
18
30
08
48
88
88
70
ENDCHAR

STARTCHAR four
ENCODING 52
SWIDTH 500 0
DWIDTH 7 0
BBX 7 11 0 0
BITMAP
02
06
0A
14
24
44
88
FC
08
08
1C
ENDCHAR

STARTCHAR five
ENCODING 53
SWIDTH 500 0
DWIDTH 7 0
BBX 7 11 0 0
BITMAP
1E
20
20
20
78
44
04
44
C4
88
70
ENDCHAR

STARTCHAR six
ENCODING 54
SWIDTH 500 0
DWIDTH 7 0
BBX 7 11 0 0
BITMAP
1C
22
22
40
58
64
84
84
88
88
70
ENDCHAR

STARTCHAR seven
ENCODING 55
SWIDTH 500 0
DWIDTH 7 0
BBX 7 11 0 0
BITMAP
7E
42
84
04
08
08
10
10
20
60
40
ENDCHAR

STARTCHAR eight
ENCODING 56
SWIDTH 500 0
DWIDTH 7 0
BBX 7 11 0 0
BITMAP
1C
22
42
42
44
38
44
84
84
88
70
ENDCHAR

STARTCHAR nine
ENCODING 57
SWIDTH 500 0
DWIDTH 7 0
BBX 7 11 0 0
BITMAP
1C
22
22
42
42
4C
34
04
88
88
70
ENDCHAR

STARTCHAR colon
ENCODING 58
SWIDTH 281 0
DWIDTH 4 0
BBX 2 8 1 0
BITMAP
40
40
00
00
00
00
80
80
ENDCHAR

STARTCHAR semicolon
ENCODING 59
SWIDTH 281 0
DWIDTH 4 0
BBX 3 10 0 -2
BITMAP
20
20
00
00
00
00
40
60
20
C0
ENDCHAR

STARTCHAR less
ENCODING 60
SWIDTH 667 0
DWIDTH 9 0
BBX 7 7 1 1
BITMAP
02
0C
30
C0
30
0C
02
ENDCHAR

STARTCHAR equal
ENCODING 61
SWIDTH 667 0
DWIDTH 9 0
BBX 7 3 1 3
BITMAP
FE
00
FE
ENDCHAR

STARTCHAR greater
ENCODING 62
SWIDTH 667 0
DWIDTH 9 0
BBX 7 7 1 1
BITMAP
80
60
18
06
18
60
80
ENDCHAR

STARTCHAR question
ENCODING 63
SWIDTH 427 0
DWIDTH 6 0
BBX 6 11 1 0
BITMAP
38
64
44
04
08
30
40
40
00
80
80
ENDCHAR

STARTCHAR at
ENCODING 64
SWIDTH 917 0
DWIDTH 13 0
BBX 12 13 1 -2
BITMAP
0F00
30C0
4020
46A0
8990
8890
9090
9120
9360
4D90
4020
30C0
0F00
ENDCHAR

STARTCHAR A
ENCODING 65
SWIDTH 771 0
DWIDTH 11 0
BBX 11 11 0 0
BITMAP
0080
0180
0180
0280
0480
0440
0840
1FC0
2040
4040
E0E0
ENDCHAR

STARTCHAR B
ENCODING 66
SWIDTH 740 0
DWIDTH 10 0
BBX 10 11 0 0
BITMAP
3F80
1040
1040
1040
2080
3F00
2080
4080
4080
4100
FE00
ENDCHAR

STARTCHAR C
ENCODING 67
SWIDTH 708 0
DWIDTH 10 0
BBX 9 11 1 0
BITMAP
1E00
2180
4080
4000
8000
8000
8000
8000
8100
4600
3800
ENDCHAR

STARTCHAR D
ENCODING 68
SWIDTH 792 0
DWIDTH 11 0
BBX 11 11 0 0
BITMAP
3F80
1040
1020
1020
2020
2020
2020
4040
4040
4180
FE00
ENDCHAR

STARTCHAR E
ENCODING 69
SWIDTH 708 0
DWIDTH 10 0
BBX 10 11 0 0
BITMAP
3FC0
1040
1040
1200
2200
3C00
2400
4400
4080
4100
FF00
ENDCHAR

STARTCHAR F
ENCODING 70
SWIDTH 698 0
DWIDTH 10 0
BBX 11 11 0 0
BITMAP
3FE0
1020
1020
1120
2100
3E00
2200
2200
4000
4000
E000
ENDCHAR

STARTCHAR G
ENCODING 71
SWIDTH 802 0
DWIDTH 11 0
BBX 10 11 1 0
BITMAP
0F00
30C0
4040
4000
8000
8000
81C0
8080
8080
4100
3E00
ENDCHAR

STARTCHAR H
ENCODING 72
SWIDTH 812 0
DWIDTH 11 0
BBX 12 11 0 0
BITMAP
3870
1020
1020
1020
2040
3FC0
2040
4080
4080
4080
E1C0
ENDCHAR

STARTCHAR I
ENCODING 73
SWIDTH 417 0
DWIDTH 6 0
BBX 5 11 1 0
BITMAP
38
10
10
10
20
20
20
40
40
40
E0
ENDCHAR

STARTCHAR J
ENCODING 74
SWIDTH 604 0
DWIDTH 8 0
BBX 8 11 0 0
BITMAP
07
02
02
02
04
04
04
44
C8
88
70
ENDCHAR

STARTCHAR K
ENCODING 75
SWIDTH 760 0
DWIDTH 11 0
BBX 11 11 0 0
BITMAP
38E0
1040
1080
1100
2200
2C00
3200
4100
4100
4080
E1C0
ENDCHAR

STARTCHAR L
ENCODING 76
SWIDTH 667 0
DWIDTH 9 0
BBX 9 11 0 0
BITMAP
3800
1000
1000
1000
2000
2000
2000
4080
4100
4100
FF00
ENDCHAR

STARTCHAR M
ENCODING 77
SWIDTH 979 0
DWIDTH 14 0
BBX 14 11 0 0
BITMAP
381C
1818
1828
1448
2448
2488
2490
4510
4610
4610
E438
ENDCHAR

STARTCHAR N
ENCODING 78
SWIDTH 823 0
DWIDTH 12 0
BBX 13 11 0 0
BITMAP
3838
1810
1410
1420
2220
2220
2240
4140
4140
4080
E080
ENDCHAR

STARTCHAR O
ENCODING 79
SWIDTH 792 0
DWIDTH 11 0
BBX 10 11 1 0
BITMAP
0F00
3080
2040
4040
4040
8040
8080
8080
8100
4300
3C00
ENDCHAR

STARTCHAR P
ENCODING 80
SWIDTH 698 0
DWIDTH 10 0
BBX 10 11 0 0
BITMAP
3F80
1040
1040
1040
2080
3F00
2000
4000
4000
4000
E000
ENDCHAR

STARTCHAR Q
ENCODING 81
SWIDTH 792 0
DWIDTH 11 0
BBX 10 12 1 -1
BITMAP
0F00
3080
2040
4040
4040
8040
9880
A480
C300
4300
3E00
01C0
ENDCHAR

STARTCHAR R
ENCODING 82
SWIDTH 760 0
DWIDTH 11 0
BBX 10 11 0 0
BITMAP
3F80
1040
1040
1040
2080
3F00
2100
4100
4080
4080
E0C0
ENDCHAR

STARTCHAR S
ENCODING 83
SWIDTH 646 0
DWIDTH 9 0
BBX 8 11 1 0
BITMAP
1C
23
41
41
20
18
04
82
82
C4
38
ENDCHAR

STARTCHAR T
ENCODING 84
SWIDTH 750 0
DWIDTH 11 0
BBX 9 11 2 0
BITMAP
7F80
C980
8900
8900
1000
1000
1000
2000
2000
2000
7000
ENDCHAR

STARTCHAR U
ENCODING 85
SWIDTH 760 0
DWIDTH 11 0
BBX 11 11 1 0
BITMAP
70E0
2040
2040
4080
4080
4080
8080
8100
8100
8200
7C00
ENDCHAR

STARTCHAR V
ENCODING 86
SWIDTH 740 0
DWIDTH 10 0
BBX 10 11 1 0
BITMAP
E1C0
4080
4100
4100
4200
2400
2400
2800
3000
3000
2000
ENDCHAR

STARTCHAR W
ENCODING 87
SWIDTH 979 0
DWIDTH 14 0
BBX 13 11 2 0
BITMAP
E738
4210
4210
4620
4620
4A40
5280
5280
6300
6300
4200
ENDCHAR

STARTCHAR X
ENCODING 88
SWIDTH 750 0
DWIDTH 11 0
BBX 11 11 0 0
BITMAP
38E0
1040
0880
0900
0600
0600
0A00
1100
2100
4080
E1C0
ENDCHAR

STARTCHAR Y
ENCODING 89
SWIDTH 708 0
DWIDTH 10 0
BBX 10 11 1 0
BITMAP
E1C0
4080
4100
2200
2400
1800
1800
1000
2000
2000
7000
ENDCHAR

STARTCHAR Z
ENCODING 90
SWIDTH 687 0
DWIDTH 10 0
BBX 10 11 0 0
BITMAP
1FC0
1040
2080
2100
0200
0400
0800
1080
2080
4100
FF00
ENDCHAR

STARTCHAR bracketleft
ENCODING 91
SWIDTH 344 0
DWIDTH 5 0
BBX 5 13 0 -2
BITMAP
38
20
20
20
40
40
40
40
40
80
80
80
E0
ENDCHAR

STARTCHAR backslash
ENCODING 92
SWIDTH 510 0
DWIDTH 7 0
BBX 7 11 0 0
BITMAP
80
40
40
20
20
10
08
08
04
04
02
ENDCHAR

STARTCHAR bracketright
ENCODING 93
SWIDTH 344 0
DWIDTH 5 0
BBX 5 13 0 -2
BITMAP
38
08
08
08
10
10
10
10
10
20
20
20
E0
ENDCHAR

STARTCHAR asciicircum
ENCODING 94
SWIDTH 427 0
DWIDTH 6 0
BBX 6 5 0 6
BITMAP
10
10
28
44
84
ENDCHAR

STARTCHAR underscore
ENCODING 95
SWIDTH 500 0
DWIDTH 7 0
BBX 7 1 0 -3
BITMAP
FE
ENDCHAR

STARTCHAR quoteleft
ENCODING 96
SWIDTH 281 0
DWIDTH 4 0
BBX 3 4 1 7
BITMAP
60
80
C0
40
ENDCHAR

STARTCHAR a
ENCODING 97
SWIDTH 604 0
DWIDTH 8 0
BBX 7 8 1 0
BITMAP
3A
46
44
84
88
88
9A
6C
ENDCHAR

STARTCHAR b
ENCODING 98
SWIDTH 604 0
DWIDTH 8 0
BBX 7 11 1 0
BITMAP
30
10
10
2C
32
22
22
42
44
C4
B8
ENDCHAR

STARTCHAR c
ENCODING 99
SWIDTH 448 0
DWIDTH 7 0
BBX 6 8 1 0
BITMAP
38
44
44
80
80
80
88
70
ENDCHAR

STARTCHAR d
ENCODING 100
SWIDTH 604 0
DWIDTH 8 0
BBX 7 11 1 0
BITMAP
06
02
02
3A
44
44
84
84
88
9A
6C
ENDCHAR

STARTCHAR e
ENCODING 101
SWIDTH 448 0
DWIDTH 7 0
BBX 6 8 1 0
BITMAP
38
44
44
88
F0
80
88
70
ENDCHAR

STARTCHAR f
ENCODING 102
SWIDTH 344 0
DWIDTH 5 0
BBX 9 13 -2 -2
BITMAP
0300
0480
0400
1E00
0800
0800
0800
0800
1000
1000
1000
A000
C000
ENDCHAR

STARTCHAR g
ENCODING 103
SWIDTH 583 0
DWIDTH 8 0
BBX 9 10 0 -2
BITMAP
0E80
1100
2100
2200
1C00
2000
7C00
8200
8200
7C00
ENDCHAR

STARTCHAR h
ENCODING 104
SWIDTH 635 0
DWIDTH 8 0
BBX 7 11 1 0
BITMAP
60
20
20
38
64
44
44
44
88
8A
8C
ENDCHAR

STARTCHAR i
ENCODING 105
SWIDTH 344 0
DWIDTH 5 0
BBX 3 11 1 0
BITMAP
20
20
00
C0
40
40
40
80
80
A0
C0
ENDCHAR

STARTCHAR j
ENCODING 106
SWIDTH 344 0
DWIDTH 5 0
BBX 6 13 -1 -2
BITMAP
04
04
00
18
08
08
08
08
10
10
10
D0
60
ENDCHAR

STARTCHAR k
ENCODING 107
SWIDTH 594 0
DWIDTH 8 0
BBX 7 11 1 0
BITMAP
60
20
20
26
4A
50
70
50
88
8A
8C
ENDCHAR

STARTCHAR l
ENCODING 108
SWIDTH 344 0
DWIDTH 5 0
BBX 3 11 1 0
BITMAP
60
20
20
20
40
40
40
40
80
A0
C0
ENDCHAR

STARTCHAR m
ENCODING 109
SWIDTH 906 0
DWIDTH 12 0
BBX 11 8 1 0
BITMAP
D980
6640
4440
4440
4440
8880
88A0
88C0
ENDCHAR

STARTCHAR n
ENCODING 110
SWIDTH 635 0
DWIDTH 8 0
BBX 7 8 1 0
BITMAP
D8
64
44
44
84
88
8A
8C
ENDCHAR

STARTCHAR o
ENCODING 111
SWIDTH 531 0
DWIDTH 7 0
BBX 6 8 1 0
BITMAP
38
44
44
84
84
88
88
70
ENDCHAR

STARTCHAR p
ENCODING 112
SWIDTH 594 0
DWIDTH 7 0
BBX 8 10 -1 -2
BITMAP
36
19
11
11
21
22
22
5C
40
E0
ENDCHAR

STARTCHAR q
ENCODING 113
SWIDTH 573 0
DWIDTH 8 0
BBX 6 10 1 -2
BITMAP
34
4C
44
84
88
88
98
70
10
38
ENDCHAR

STARTCHAR r
ENCODING 114
SWIDTH 490 0
DWIDTH 7 0
BBX 6 8 1 0
BITMAP
D8
6C
40
40
40
80
80
80
ENDCHAR

STARTCHAR s
ENCODING 115
SWIDTH 448 0
DWIDTH 6 0
BBX 6 8 0 0
BITMAP
38
44
40
20
10
08
88
70
ENDCHAR

STARTCHAR t
ENCODING 116
SWIDTH 354 0
DWIDTH 5 0
BBX 4 11 1 0
BITMAP
20
20
20
F0
40
40
40
80
80
A0
C0
ENDCHAR

STARTCHAR u
ENCODING 117
SWIDTH 635 0
DWIDTH 8 0
BBX 7 8 1 0
BITMAP
C4
44
44
44
88
88
9A
6C
ENDCHAR

STARTCHAR v
ENCODING 118
SWIDTH 542 0
DWIDTH 8 0
BBX 6 8 2 0
BITMAP
C8
4C
44
84
88
88
90
60
ENDCHAR

STARTCHAR w
ENCODING 119
SWIDTH 812 0
DWIDTH 11 0
BBX 10 8 1 0
BITMAP
C480
44C0
4440
8440
8880
8880
9900
6600
ENDCHAR

STARTCHAR x
ENCODING 120
SWIDTH 583 0
DWIDTH 8 0
BBX 9 8 0 0
BITMAP
3180
5280
0C00
0800
0800
1800
A500
C600
ENDCHAR

STARTCHAR y
ENCODING 121
SWIDTH 521 0
DWIDTH 7 0
BBX 8 10 -1 -2
BITMAP
32
53
11
11
11
0A
0C
08
D0
60
ENDCHAR

STARTCHAR z
ENCODING 122
SWIDTH 510 0
DWIDTH 7 0
BBX 7 8 1 0
BITMAP
32
4C
08
10
20
40
E4
98
ENDCHAR

STARTCHAR braceleft
ENCODING 123
SWIDTH 479 0
DWIDTH 7 0
BBX 5 13 2 -2
BITMAP
18
20
20
20
20
40
80
40
40
80
80
80
40
ENDCHAR

STARTCHAR bar
ENCODING 124
SWIDTH 510 0
DWIDTH 7 0
BBX 1 11 3 0
BITMAP
80
80
80
80
80
80
80
80
80
80
80
ENDCHAR

STARTCHAR braceright
ENCODING 125
SWIDTH 479 0
DWIDTH 7 0
BBX 5 13 1 -2
BITMAP
10
08
08
08
10
10
08
10
20
20
20
20
C0
ENDCHAR

STARTCHAR asciitilde
ENCODING 126
SWIDTH 667 0
DWIDTH 9 0
BBX 8 2 1 4
BITMAP
71
8E
ENDCHAR

STARTCHAR space
ENCODING 160
SWIDTH 250 0
DWIDTH 4 0
BBX 0 0 0 0
BITMAP
ENDCHAR

STARTCHAR afii10023
ENCODING 161
SWIDTH 708 0
DWIDTH 10 0
BBX 10 14 0 0
BITMAP
0900
0900
0000
3FC0
1040
1040
1200
2200
3C00
2400
4400
4080
4100
FF00
ENDCHAR

STARTCHAR afii10051
ENCODING 162
SWIDTH 842 0
DWIDTH 10 0
BBX 10 11 0 0
BITMAP
7FC0
C8C0
8880
0800
1780
1840
1040
2040
2040
2480
7300
ENDCHAR

STARTCHAR afii10052
ENCODING 163
SWIDTH 676 0
DWIDTH 9 0
BBX 9 14 0 0
BITMAP
0300
0400
0000
3F80
1180
1100
1100
2000
2000
2000
4000
4000
4000
E000
ENDCHAR

STARTCHAR afii10053
ENCODING 164
SWIDTH 708 0
DWIDTH 10 0
BBX 10 11 1 0
BITMAP
0F80
30C0
4040
4000
8000
FC00
8000
8000
8100
4300
3E00
ENDCHAR

STARTCHAR afii10054
ENCODING 165
SWIDTH 646 0
DWIDTH 9 0
BBX 8 11 1 0
BITMAP
1C
23
41
41
20
18
04
82
82
C4
38
ENDCHAR

STARTCHAR afii10055
ENCODING 166
SWIDTH 406 0
DWIDTH 6 0
BBX 5 11 1 0
BITMAP
38
10
10
10
20
20
20
40
40
40
E0
ENDCHAR

STARTCHAR afii10056
ENCODING 167
SWIDTH 406 0
DWIDTH 6 0
BBX 6 14 1 0
BITMAP
24
24
00
38
10
10
10
20
20
20
40
40
40
E0
ENDCHAR

STARTCHAR afii10057
ENCODING 168
SWIDTH 615 0
DWIDTH 8 0
BBX 8 11 0 0
BITMAP
07
02
02
02
04
04
04
44
C8
88
70
ENDCHAR

STARTCHAR afii10058
ENCODING 169
SWIDTH 1096 0
DWIDTH 15 0
BBX 16 11 -1 0
BITMAP
0FF0
0420
0420
0420
0840
087E
0841
1081
1081
D082
61FC
ENDCHAR

STARTCHAR afii10059
ENCODING 170
SWIDTH 1061 0
DWIDTH 15 0
BBX 15 11 0 0
BITMAP
38E0
1040
1040
1040
2080
3FFC
2082
4102
4102
4104
E3F8
ENDCHAR

STARTCHAR afii10060
ENCODING 171
SWIDTH 847 0
DWIDTH 10 0
BBX 10 11 0 0
BITMAP
7FC0
C8C0
8880
0800
1780
1840
1040
2040
2040
2080
71C0
ENDCHAR

STARTCHAR afii10061
ENCODING 172
SWIDTH 779 0
DWIDTH 11 0
BBX 11 14 0 0
BITMAP
0180
0200
0000
38E0
1120
1100
1200
2400
3C00
2400
4200
4200
4100
E180
ENDCHAR

STARTCHAR hyphen
ENCODING 173
SWIDTH 281 0
DWIDTH 4 0
BBX 4 1 0 3
BITMAP
F0
ENDCHAR

STARTCHAR afii10062
ENCODING 174
SWIDTH 738 0
DWIDTH 10 0
BBX 10 14 1 0
BITMAP
1100
0E00
0000
E1C0
4080
4080
2100
2100
1200
1400
0800
8800
D000
6000
ENDCHAR

STARTCHAR afii10145
ENCODING 175
SWIDTH 823 0
DWIDTH 11 0
BBX 12 13 0 -2
BITMAP
3870
1020
1020
1020
2040
2040
2040
4080
4080
4080
FFC0
0800
0800
ENDCHAR

STARTCHAR afii10017
ENCODING 176
SWIDTH 753 0
DWIDTH 11 0
BBX 11 11 0 0
BITMAP
0080
0180
0180
0280
0480
0440
0840
1FC0
2040
4040
E0E0
ENDCHAR

STARTCHAR afii10018
ENCODING 177
SWIDTH 767 0
DWIDTH 10 0
BBX 10 11 0 0
BITMAP
3FC0
1040
1040
1000
2000
3F00
2080
4080
4080
4100
FE00
ENDCHAR

STARTCHAR afii10019
ENCODING 178
SWIDTH 766 0
DWIDTH 10 0
BBX 10 11 0 0
BITMAP
3F80
1040
1040
1040
2080
3F00
2080
4080
4080
4100
FE00
ENDCHAR

STARTCHAR afii10020
ENCODING 179
SWIDTH 676 0
DWIDTH 9 0
BBX 9 11 0 0
BITMAP
3F80
1180
1100
1100
2000
2000
2000
4000
4000
4000
E000
ENDCHAR

STARTCHAR afii10021
ENCODING 180
SWIDTH 803 0
DWIDTH 11 0
BBX 12 13 0 -2
BITMAP
1FF0
0820
0820
0840
0840
1040
1040
1040
2080
4080
FF80
8080
8080
ENDCHAR

STARTCHAR afii10022
ENCODING 181
SWIDTH 708 0
DWIDTH 10 0
BBX 10 11 0 0
BITMAP
3FC0
1040
1040
1200
2200
3C00
2400
4400
4080
4100
FF00
ENDCHAR

STARTCHAR afii10024
ENCODING 182
SWIDTH 1175 0
DWIDTH 16 0
BBX 16 11 0 0
BITMAP
38E7
2449
0448
0490
02A0
07E0
0920
1110
2210
4208
C70C
ENDCHAR

STARTCHAR afii10025
ENCODING 183
SWIDTH 632 0
DWIDTH 9 0
BBX 8 11 1 0
BITMAP
1E
21
41
02
02
3C
02
02
82
C4
78
ENDCHAR

STARTCHAR afii10026
ENCODING 184
SWIDTH 823 0
DWIDTH 11 0
BBX 12 11 0 0
BITMAP
3870
1060
10A0
1120
2240
2440
2840
5080
6080
4080
E1C0
ENDCHAR

STARTCHAR afii10027
ENCODING 185
SWIDTH 823 0
DWIDTH 11 0
BBX 12 14 0 0
BITMAP
0440
0380
0000
3870
1060
10A0
1120
2240
2440
2840
5080
6080
4080
E1C0
ENDCHAR

STARTCHAR afii10028
ENCODING 186
SWIDTH 779 0
DWIDTH 11 0
BBX 11 11 0 0
BITMAP
38E0
1120
1100
1200
2400
3C00
2400
4200
4200
4100
E180
ENDCHAR

STARTCHAR afii10029
ENCODING 187
SWIDTH 830 0
DWIDTH 11 0
BBX 12 11 0 0
BITMAP
0FF0
0420
0420
0420
0840
0840
0840
1080
1080
D080
61C0
ENDCHAR

STARTCHAR afii10030
ENCODING 188
SWIDTH 979 0
DWIDTH 14 0
BBX 14 11 0 0
BITMAP
381C
1818
1828
1448
2448
2488
2490
4510
4610
4610
E438
ENDCHAR

STARTCHAR afii10031
ENCODING 189
SWIDTH 812 0
DWIDTH 11 0
BBX 12 11 0 0
BITMAP
3870
1020
1020
1020
2040
3FC0
2040
4080
4080
4080
E1C0
ENDCHAR

STARTCHAR afii10032
ENCODING 190
SWIDTH 787 0
DWIDTH 11 0
BBX 10 11 1 0
BITMAP
0F00
3080
2040
4040
4040
8040
8080
8080
8100
4300
3C00
ENDCHAR

STARTCHAR afii10033
ENCODING 191
SWIDTH 823 0
DWIDTH 11 0
BBX 12 11 0 0
BITMAP
3FF0
1020
1020
1020
2040
2040
2040
4080
4080
4080
E1C0
ENDCHAR

STARTCHAR afii10034
ENCODING 192
SWIDTH 704 0
DWIDTH 10 0
BBX 10 11 0 0
BITMAP
3F80
1040
1040
1040
2080
3F00
2000
4000
4000
4000
E000
ENDCHAR

STARTCHAR afii10035
ENCODING 193
SWIDTH 708 0
DWIDTH 10 0
BBX 9 11 1 0
BITMAP
1E00
2180
4080
4000
8000
8000
8000
8000
8100
4600
3800
ENDCHAR

STARTCHAR afii10036
ENCODING 194
SWIDTH 708 0
DWIDTH 11 0
BBX 9 11 2 0
BITMAP
7F80
C980
8900
8900
1000
1000
1000
2000
2000
2000
7000
ENDCHAR

STARTCHAR afii10037
ENCODING 195
SWIDTH 738 0
DWIDTH 10 0
BBX 10 11 1 0
BITMAP
E1C0
4080
4080
2100
2100
1200
1400
0800
8800
D000
6000
ENDCHAR

STARTCHAR afii10038
ENCODING 196
SWIDTH 874 0
DWIDTH 12 0
BBX 11 11 1 0
BITMAP
0700
0200
1F80
6440
4420
8420
8840
48C0
3F00
0800
1C00
ENDCHAR

STARTCHAR afii10039
ENCODING 197
SWIDTH 760 0
DWIDTH 11 0
BBX 11 11 0 0
BITMAP
38E0
1040
0880
0900
0600
0600
0A00
1100
2100
4080
E1C0
ENDCHAR

STARTCHAR afii10040
ENCODING 198
SWIDTH 823 0
DWIDTH 11 0
BBX 12 13 0 -2
BITMAP
3870
1020
1020
1020
2040
2040
2040
4080
4080
4080
FFC0
0040
0040
ENDCHAR

STARTCHAR afii10041
ENCODING 199
SWIDTH 779 0
DWIDTH 10 0
BBX 9 11 1 0
BITMAP
E380
4100
4100
8100
8200
8600
7A00
0400
0400
0400
0E00
ENDCHAR

STARTCHAR afii10042
ENCODING 200
SWIDTH 1141 0
DWIDTH 15 0
BBX 15 11 0 0
BITMAP
39CE
1084
1084
1084
2108
2108
2108
4210
4210
4210
FFF8
ENDCHAR

STARTCHAR afii10043
ENCODING 201
SWIDTH 1132 0
DWIDTH 15 0
BBX 15 13 0 -2
BITMAP
39CE
1084
1084
1084
2108
2108
2108
4210
4210
4210
FFF8
0008
0008
ENDCHAR

STARTCHAR afii10044
ENCODING 202
SWIDTH 881 0
DWIDTH 11 0
BBX 11 11 0 0
BITMAP
FE00
8400
8400
0400
0800
0FC0
0820
1020
1020
1040
3F80
ENDCHAR

STARTCHAR afii10045
ENCODING 203
SWIDTH 1083 0
DWIDTH 14 0
BBX 14 11 0 0
BITMAP
381C
1008
1008
2008
2010
3F10
2090
40A0
40A0
4120
FE70
ENDCHAR

STARTCHAR afii10046
ENCODING 204
SWIDTH 739 0
DWIDTH 9 0
BBX 9 11 0 0
BITMAP
3800
1000
1000
2000
2000
3F00
2080
4080
4080
4100
FE00
ENDCHAR

STARTCHAR afii10047
ENCODING 205
SWIDTH 703 0
DWIDTH 10 0
BBX 10 11 1 0
BITMAP
1F00
3080
2040
0040
0040
0FC0
0040
0080
8080
C300
7C00
ENDCHAR

STARTCHAR afii10048
ENCODING 206
SWIDTH 1133 0
DWIDTH 16 0
BBX 16 11 0 0
BITMAP
383C
10C2
1081
1101
2101
3E01
2202
2202
4204
410C
E0F0
ENDCHAR

STARTCHAR afii10049
ENCODING 207
SWIDTH 746 0
DWIDTH 10 0
BBX 11 11 0 0
BITMAP
1FE0
2040
2040
2040
1080
1F80
1080
2100
2100
4100
C380
ENDCHAR

STARTCHAR afii10065
ENCODING 208
SWIDTH 604 0
DWIDTH 8 0
BBX 7 8 1 0
BITMAP
3A
46
44
84
88
88
9A
6C
ENDCHAR

STARTCHAR afii10066
ENCODING 209
SWIDTH 551 0
DWIDTH 7 0
BBX 7 11 1 0
BITMAP
02
3C
40
58
64
44
84
84
88
88
70
ENDCHAR

STARTCHAR afii10067
ENCODING 210
SWIDTH 488 0
DWIDTH 7 0
BBX 6 8 1 0
BITMAP
38
44
44
98
E4
84
88
70
ENDCHAR

STARTCHAR afii10068
ENCODING 211
SWIDTH 439 0
DWIDTH 7 0
BBX 6 8 1 0
BITMAP
38
44
04
18
60
80
88
70
ENDCHAR

STARTCHAR afii10069
ENCODING 212
SWIDTH 542 0
DWIDTH 8 0
BBX 7 11 1 0
BITMAP
18
04
02
3A
46
42
84
84
88
88
70
ENDCHAR

STARTCHAR afii10070
ENCODING 213
SWIDTH 458 0
DWIDTH 7 0
BBX 6 8 1 0
BITMAP
38
44
44
88
F0
80
88
70
ENDCHAR

STARTCHAR afii10072
ENCODING 214
SWIDTH 975 0
DWIDTH 14 0
BBX 15 8 0 0
BITMAP
389C
44A2
0522
07C0
0540
8940
8A44
7238
ENDCHAR

STARTCHAR afii10073
ENCODING 215
SWIDTH 490 0
DWIDTH 8 0
BBX 7 8 1 0
BITMAP
1C
22
02
0C
04
84
C8
70
ENDCHAR

STARTCHAR afii10074
ENCODING 216
SWIDTH 629 0
DWIDTH 8 0
BBX 7 8 1 0
BITMAP
C4
44
44
44
88
88
9A
6C
ENDCHAR

STARTCHAR afii10075
ENCODING 217
SWIDTH 635 0
DWIDTH 8 0
BBX 7 11 1 0
BITMAP
44
38
00
C4
44
44
44
88
88
9A
6C
ENDCHAR

STARTCHAR afii10076
ENCODING 218
SWIDTH 594 0
DWIDTH 8 0
BBX 7 8 1 0
BITMAP
C6
4A
48
70
50
88
88
8C
ENDCHAR

STARTCHAR afii10077
ENCODING 219
SWIDTH 646 0
DWIDTH 9 0
BBX 9 8 0 0
BITMAP
0F80
1100
1100
1100
2200
2200
A280
C300
ENDCHAR

STARTCHAR afii10078
ENCODING 220
SWIDTH 854 0
DWIDTH 12 0
BBX 11 8 1 0
BITMAP
3860
18C0
1940
2940
2A40
2A80
ACA0
C8C0
ENDCHAR

STARTCHAR afii10079
ENCODING 221
SWIDTH 644 0
DWIDTH 8 0
BBX 7 8 1 0
BITMAP
C4
44
44
7C
48
88
8A
8C
ENDCHAR

STARTCHAR afii10080
ENCODING 222
SWIDTH 531 0
DWIDTH 7 0
BBX 6 8 1 0
BITMAP
38
44
44
84
84
88
88
70
ENDCHAR

STARTCHAR afii10081
ENCODING 223
SWIDTH 635 0
DWIDTH 8 0
BBX 7 8 1 0
BITMAP
D8
64
44
44
84
88
8A
8C
ENDCHAR

STARTCHAR afii10082
ENCODING 224
SWIDTH 583 0
DWIDTH 7 0
BBX 8 10 -1 -2
BITMAP
36
19
11
11
21
22
22
5C
40
E0
ENDCHAR

STARTCHAR afii10083
ENCODING 225
SWIDTH 458 0
DWIDTH 7 0
BBX 6 8 1 0
BITMAP
38
44
44
80
80
80
88
70
ENDCHAR

STARTCHAR afii10084
ENCODING 226
SWIDTH 906 0
DWIDTH 12 0
BBX 11 8 1 0
BITMAP
D980
6640
4440
4440
4440
8880
88A0
88C0
ENDCHAR

STARTCHAR afii10085
ENCODING 227
SWIDTH 510 0
DWIDTH 7 0
BBX 8 10 -1 -2
BITMAP
32
53
11
11
11
0A
0C
08
D0
60
ENDCHAR

STARTCHAR afii10086
ENCODING 228
SWIDTH 759 0
DWIDTH 11 0
BBX 10 13 1 -2
BITMAP
01C0
0240
0200
3B80
4640
4440
8440
8440
8880
8880
7700
9000
E000
ENDCHAR

STARTCHAR afii10087
ENCODING 229
SWIDTH 573 0
DWIDTH 8 0
BBX 9 8 0 0
BITMAP
3180
5280
0C00
0800
0800
1800
A500
C600
ENDCHAR

STARTCHAR afii10088
ENCODING 230
SWIDTH 635 0
DWIDTH 8 0
BBX 7 10 1 -2
BITMAP
C4
44
44
44
88
88
9A
6C
08
10
ENDCHAR

STARTCHAR afii10089
ENCODING 231
SWIDTH 602 0
DWIDTH 8 0
BBX 6 8 1 0
BITMAP
C4
44
88
98
68
10
14
18
ENDCHAR

STARTCHAR afii10090
ENCODING 232
SWIDTH 896 0
DWIDTH 12 0
BBX 11 8 1 0
BITMAP
C440
4440
4440
4440
8880
8880
99A0
66C0
ENDCHAR

STARTCHAR afii10091
ENCODING 233
SWIDTH 895 0
DWIDTH 12 0
BBX 11 10 1 -2
BITMAP
C440
4440
4440
4440
8880
8880
99A0
66C0
0080
0100
ENDCHAR

STARTCHAR afii10092
ENCODING 234
SWIDTH 573 0
DWIDTH 7 0
BBX 6 8 1 0
BITMAP
70
90
20
38
44
84
88
70
ENDCHAR

STARTCHAR afii10093
ENCODING 235
SWIDTH 798 0
DWIDTH 11 0
BBX 10 8 1 0
BITMAP
3180
1080
2080
3880
4500
8500
8940
7180
ENDCHAR

STARTCHAR afii10094
ENCODING 236
SWIDTH 521 0
DWIDTH 7 0
BBX 6 8 1 0
BITMAP
30
10
20
38
44
84
88
70
ENDCHAR

STARTCHAR afii10095
ENCODING 237
SWIDTH 448 0
DWIDTH 7 0
BBX 6 8 1 0
BITMAP
38
44
04
1C
04
04
C8
70
ENDCHAR

STARTCHAR afii10096
ENCODING 238
SWIDTH 805 0
DWIDTH 11 0
BBX 10 8 1 0
BITMAP
C380
4440
4440
7840
8840
8880
8880
8700
ENDCHAR

STARTCHAR afii10097
ENCODING 239
SWIDTH 592 0
DWIDTH 8 0
BBX 8 8 0 0
BITMAP
1F
21
21
22
1E
24
45
C6
ENDCHAR

STARTCHAR afii61352
ENCODING 240
SWIDTH 1000 0
DWIDTH 14 0
BBX 15 11 -1 0
BITMAP
1830
0850
0C40
144C
1452
16A2
12A2
22A4
2318
A100
C138
ENDCHAR

STARTCHAR afii10071
ENCODING 241
SWIDTH 462 0
DWIDTH 7 0
BBX 6 11 1 0
BITMAP
24
24
00
38
44
44
88
F0
80
88
70
ENDCHAR

STARTCHAR afii10099
ENCODING 242
SWIDTH 563 0
DWIDTH 8 0
BBX 6 13 1 -2
BITMAP
20
7C
20
38
64
44
44
44
88
88
88
08
10
ENDCHAR

STARTCHAR afii10100
ENCODING 243
SWIDTH 510 0
DWIDTH 7 0
BBX 7 11 0 0
BITMAP
06
08
00
7E
22
22
20
40
40
40
E0
ENDCHAR

STARTCHAR afii10101
ENCODING 244
SWIDTH 469 0
DWIDTH 7 0
BBX 6 8 1 0
BITMAP
38
44
80
F0
80
80
98
70
ENDCHAR

STARTCHAR afii10102
ENCODING 245
SWIDTH 448 0
DWIDTH 6 0
BBX 6 8 0 0
BITMAP
38
44
40
20
10
08
88
70
ENDCHAR

STARTCHAR afii10103
ENCODING 246
SWIDTH 344 0
DWIDTH 5 0
BBX 3 11 1 0
BITMAP
20
20
00
C0
40
40
40
80
80
A0
C0
ENDCHAR

STARTCHAR afii10104
ENCODING 247
SWIDTH 344 0
DWIDTH 5 0
BBX 4 11 1 0
BITMAP
90
90
00
C0
40
40
40
80
80
A0
C0
ENDCHAR

STARTCHAR afii10105
ENCODING 248
SWIDTH 344 0
DWIDTH 5 0
BBX 6 13 -1 -2
BITMAP
04
04
00
18
08
08
08
08
10
10
10
D0
60
ENDCHAR

STARTCHAR afii10106
ENCODING 249
SWIDTH 850 0
DWIDTH 11 0
BBX 11 8 0 0
BITMAP
1F80
0880
0900
11C0
1220
1420
A440
C380
ENDCHAR

STARTCHAR afii10107
ENCODING 250
SWIDTH 845 0
DWIDTH 10 0
BBX 9 8 1 0
BITMAP
C600
4200
4400
7F00
4880
9080
9100
8E00
ENDCHAR

STARTCHAR afii10108
ENCODING 251
SWIDTH 635 0
DWIDTH 8 0
BBX 7 11 1 0
BITMAP
20
7C
20
38
64
44
44
44
88
8A
8C
ENDCHAR

STARTCHAR afii10109
ENCODING 252
SWIDTH 594 0
DWIDTH 8 0
BBX 7 11 1 0
BITMAP
0C
10
00
C6
4A
48
70
50
88
88
8C
ENDCHAR

STARTCHAR section
ENCODING 253
SWIDTH 489 0
DWIDTH 6 0
BBX 5 13 1 -2
BITMAP
30
48
48
20
60
90
88
48
30
20
90
90
60
ENDCHAR

STARTCHAR afii10110
ENCODING 254
SWIDTH 510 0
DWIDTH 7 0
BBX 8 13 -1 -2
BITMAP
11
0E
00
32
53
11
11
11
0A
0C
08
D0
60
ENDCHAR

STARTCHAR afii10193
ENCODING 255
SWIDTH 635 0
DWIDTH 8 0
BBX 7 10 1 -2
BITMAP
C4
44
44
44
88
88
9A
6C
40
80
ENDCHAR
ENDFONT
